<svg width="56" height="41" viewBox="0 0 56 41" fill="none" xmlns="http://www.w3.org/2000/svg">
<path d="M19.4695 7.99604C22.3448 3.95261 23.7825 1.9309 25.5669 1.21597C27.1286 0.590282 28.8713 0.590282 30.433 1.21597C32.2175 1.9309 33.6552 3.95261 36.5305 7.99604L52.1618 29.9776C54.6954 33.5405 55.9622 35.3219 55.905 36.8066C55.8551 38.0993 55.234 39.3032 54.2094 40.0929C53.0326 41 50.8467 41 46.4748 41H9.52514C5.1533 41 2.96738 41 1.79057 40.0929C0.765971 39.3032 0.144839 38.0993 0.0949966 36.8066C0.0377499 35.3219 1.30454 33.5405 3.83813 29.9776L19.4695 7.99604Z" fill="#5E59FE"/>
</svg>
